<svg xmlns="http://www.w3.org/2000/svg" viewBox="0 0 448.12 448"><defs><style>.cls-1{fill:#fff;}</style></defs><title>Asset 1</title><g id="Layer_2" data-name="Layer 2"><g id="Layer_1-2" data-name="Layer 1"><path class="cls-1" d="M448,.18c-21.72,21.21-42.89,43-64.52,64.3-1.05,1.23-2.26-.16-3.09-.85A222.8,222.8,0,0,0,176.17,5.2C107.5,19.87,47.36,69.26,19.73,133.81l.09,0a33.45,33.45,0,1,0,62.4,22.78c19.76-42,58.84-74.45,104-85.53,52.2-13.17,111.37,1.33,149.4,40-22,21.83-44.39,43.34-66.33,65.26,59.52-.32,119.06-.14,178.59-.09C448.35,117.61,448,58.89,448,.18Z"/><path class="cls-1" d="M399.67,265.5A33.45,33.45,0,0,0,368.08,288h0c-19.11,42.59-57.57,76.22-102.84,88.18-52.8,14.31-113.45.3-152.18-39.05,21.92-21.76,44.37-43,66.19-64.87q-89.55.07-179.11,0Q-.1,360.11.12,448C22,426.09,43.87,404.09,65.91,382.3a232.46,232.46,0,0,0,46.92,35.87c54.74,32,123.4,38.6,183.3,17.89,57.48-19.3,106.07-63.18,131.21-118.32a33.45,33.45,0,0,0-27.67-52.24Z"/></g></g></svg>